<svg width="168" height="45" viewBox="0 0 168 45" fill="none" xmlns="http://www.w3.org/2000/svg">
<g clip-path="url(#clip0_1_16)">
<path d="M35.0779 35.808C36.5769 34.9545 37.2753 33.2359 37.2753 31.5231V20.3867C37.2753 18.6739 36.5769 17.3621 35.0779 17.2647L40.5684 14.7957V31.5231C40.5684 33.2359 41.2157 34.9488 42.7146 35.808H35.0723H35.0779ZM37.5251 8.35103C38.2746 7.5433 39.2227 7.03918 40.0233 7.03918C40.4208 7.03918 40.7728 7.18813 41.0226 7.44018C41.7721 8.1448 41.4712 9.76025 40.2731 10.969C39.4726 11.7767 38.5244 12.2808 37.7295 12.2808C37.3775 12.2808 37.0311 12.1777 36.7813 11.9257C36.0318 11.1695 36.3838 9.60558 37.5308 8.35103H37.5251Z" fill="#0E223D"/>
<path d="M44.815 29.7649L48.0116 28.8598C47.5631 33.6947 50.9073 35.8143 54.1039 35.8658C56.6022 35.9174 59.9464 34.7087 59.8953 31.684C60.2473 26.2934 45.3658 28.6135 45.1671 20.7997C45.0649 16.5147 48.3126 14.252 53.0081 14.252C58.05 14.252 61.4964 18.0328 61.2977 22.2605L58.1011 23.1198C58.703 17.2251 55.3531 14.8076 52.111 14.8076C49.363 14.8076 46.666 16.572 46.666 19.4936C46.8136 24.8326 61.1444 21.8137 61.6441 29.9253C61.7917 34.4623 57.6015 36.4731 53.4056 36.4731C49.2097 36.4731 44.6674 34.2046 44.815 29.7706V29.7649Z" fill="#0E223D"/>
<path d="M59.3963 0.542969C64.8414 0.542969 68.8329 4.47277 68.8329 11.5246V25.382C69.8322 19.2353 72.6768 14.2973 76.1743 14.1483C80.0182 13.9994 82.2155 16.9209 82.2155 20.444V31.5288C82.2155 33.2416 82.8628 34.9545 84.4128 35.8138H76.725C78.2751 34.9602 78.9223 33.2416 78.9223 31.5288V20.043C78.9223 18.1297 78.1218 15.1565 75.7768 15.1565C72.1828 15.1565 69.236 22.26 68.8385 29.3634V31.5288C68.8385 33.2416 69.4858 34.9545 70.9848 35.8138H63.3424C64.8414 34.9602 65.5397 33.2416 65.5397 31.5288V7.39433C65.5397 3.36142 64.0919 2.00375 62.0933 2.00375C59.5951 2.00375 56.2508 4.07177 53.8037 5.62994L53.4062 1.9522C55.5014 0.995526 57.5511 0.542969 59.3963 0.542969Z" fill="#0E223D"/>
<path d="M86.3599 17.2703L91.8504 14.8013V24.6258C92.6509 18.8801 94.5984 14.4003 97.9427 14.2457C101.735 14.0967 103.586 16.9667 103.586 20.1404V24.6258C104.387 18.8801 106.334 14.4003 109.679 14.2457C113.471 14.0967 115.374 16.9667 115.374 20.1404V31.5288C115.374 33.2416 116.021 34.9544 117.571 35.8137H109.883C111.433 34.9602 112.08 33.2416 112.08 31.5288V20.444C112.08 18.5306 111.882 15.105 109.281 15.2023C105.687 15.3513 104.041 22.1568 103.586 29.4607V31.5288C103.586 33.2416 104.285 34.9544 105.784 35.8137H98.1414C99.6403 34.9602 100.288 33.2416 100.288 31.5288V20.444C100.288 18.5306 100.14 15.105 97.4941 15.2023C93.9512 15.3513 92.2535 22.1568 91.8504 29.4607V31.5288C91.8504 33.2416 92.4976 34.9544 93.9966 35.8137H86.3542C87.8532 34.9602 88.5516 33.2416 88.5516 31.5288V20.3924C88.5516 18.6796 87.8532 17.3677 86.3542 17.2703H86.3599Z" fill="#0E223D"/>
<path d="M129.307 21.0001C131.902 21.0001 134.502 21.7047 136.296 23.1139V20.5418C136.194 16.9156 134.798 15.6038 132.754 15.6038C130.505 15.6038 127.462 17.265 124.566 19.081L124.169 15.4033C125.917 14.6471 127.865 14.2461 129.812 14.2461C134.803 14.2461 139.601 16.9672 139.601 23.1139V31.5292C139.601 33.242 140.248 34.9549 141.798 35.8141H136.308V31.8328C134.86 34.8575 131.414 36.4156 128.018 36.4156C123.771 36.4156 119.626 33.9982 119.53 29.0086C119.428 23.5665 124.373 21.0001 129.318 21.0001H129.307ZM128.756 35.6136C132.401 35.6136 136.399 32.7895 136.296 28.4587V24.3284C134.746 22.6671 132.35 21.8078 130.057 21.8078C126.411 21.8078 122.868 23.9732 122.817 28.5561C122.766 33.5456 125.662 35.6079 128.762 35.6079L128.756 35.6136Z" fill="#0E223D"/>
<path d="M143.887 44.5273C142.042 44.5273 139.992 43.9716 137.647 43.1696L138.045 39.4919C140.344 41.1016 142.888 42.3619 145.188 42.3619C147.487 42.3619 149.384 41.1531 150.53 37.779L144.137 19.0867C143.49 17.2249 142.44 15.661 140.844 14.8017H148.532C147.232 15.9131 147.232 17.8264 147.731 19.2872L152.325 32.6405L157.815 16.5203C159.263 12.2869 162.357 7.34887 167.354 7.50354L165.906 12.4416C165.406 12.2926 164.907 12.1895 164.407 12.1895C161.313 12.1895 159.064 15.4147 158.116 18.1873L151.274 37.9853C149.628 42.8202 147.181 44.533 143.882 44.533L143.887 44.5273Z" fill="#0E223D"/>
<path d="M28.2017 0.542969C29.7006 1.39653 30.4955 3.10937 30.4955 4.82794V33.5911L14.0128 5.19456V5.20602C12.3833 2.17561 9.48763 0.542969 5.99009 0.542969C4.1448 0.542969 2.09511 0.995526 0 1.9522L0.397447 5.62994C2.84458 4.07177 6.1945 2.00375 8.68706 2.00375C10.6856 2.00375 12.1335 3.36142 12.1335 7.39433V31.5288C12.1335 33.2416 11.4351 34.9545 9.93617 35.8138H17.5785C16.0796 34.9602 15.4323 33.2416 15.4323 31.5288V14.641L27.6055 35.808H31.2507V4.82794C31.2507 3.1151 32.0513 1.40225 33.5445 0.542969H28.2017Z" fill="#0E223D"/>
</g>
<defs>
<clipPath id="clip0_1_16">
<rect width="167.354" height="43.9839" fill="white" transform="translate(0 0.542969)"/>
</clipPath>
</defs>
</svg>
