<?xml version="1.0" encoding="UTF-8"?>
<svg id="Layer_2" data-name="Layer 2" xmlns="http://www.w3.org/2000/svg" viewBox="0 0 55.21 61.56">
  <defs>
    <style>
      .cls-1 {
        fill: #f5c445;
      }
    </style>
  </defs>
  <g id="Layer_1-2" data-name="Layer 1">
    <g>
      <path class="cls-1" d="m46.29,24.95c4.04-1.24,7.42.17,7.42,3.17v29.58L24.68,8.12v.02C21.81,2.85,16.71,0,10.55,0,7.3,0,3.69.79,0,2.46l.7,6.42C5.01,6.16,10.91,2.55,15.3,2.55c3.52,0,6.07,2.37,6.07,9.41v42.13c0,2.99-1.23,5.98-3.87,7.48h13.46c-2.64-1.49-3.78-4.49-3.78-7.48v-29.48l21.44,36.95h6.42V28.11c0-2.99.18-6.31.18-8.04l-8.92,4.87Z"/>
      <path class="cls-1" d="m48.34,7.27c1.32-1.59,2.99-2.59,4.4-2.59.7,0,1.32.3,1.76.8,1.32,1.39.79,4.58-1.32,6.96-1.41,1.59-3.08,2.59-4.48,2.59-.62,0-1.23-.2-1.67-.7-1.32-1.49-.7-4.58,1.32-7.06Z"/>
    </g>
  </g>
</svg>