<svg width="162" height="40" viewBox="0 0 162 40" fill="none" xmlns="http://www.w3.org/2000/svg">
<path d="M34.4114 32.068C35.8423 31.2888 36.5171 29.7306 36.5171 28.1724V18.0517C36.5171 16.4935 35.8504 15.3014 34.4114 15.2079L39.6717 12.9641V28.1724C39.6717 29.7306 40.2896 31.2888 41.7286 32.068H34.4114ZM36.7529 7.10513C37.4684 6.37276 38.379 5.91309 39.1432 5.91309C39.5253 5.91309 39.8587 6.05333 40.1026 6.27927C40.8181 6.91814 40.5335 8.38288 39.3871 9.48922C38.6229 10.2216 37.7123 10.6813 36.948 10.6813C36.6147 10.6813 36.2813 10.5878 36.0374 10.3618C35.322 9.67621 35.6553 8.25822 36.7529 7.11292V7.10513Z" fill="#F5C445"/>
<path d="M43.7291 26.5683L46.7861 25.7424C46.3551 30.1366 49.5585 32.061 52.6155 32.1078C55.0058 32.1545 58.2091 31.056 58.1603 28.3057C58.4937 23.4051 44.2494 25.5087 44.0624 18.4109C43.9648 14.5154 47.0706 12.4585 51.5667 12.4585C56.3961 12.4585 59.6888 15.8944 59.5018 19.7432L56.4449 20.5223C57.0221 15.162 53.8188 12.9649 50.7049 12.9649C48.0788 12.9649 45.4933 14.5699 45.4933 17.2267C45.6397 22.0806 59.3555 19.3303 59.8352 26.7085C59.9815 30.83 55.9652 32.6609 51.9488 32.6609C47.9324 32.6609 43.5827 30.5963 43.7291 26.5683Z" fill="#F5C445"/>
<path d="M57.6888 0C62.9003 0 66.7215 3.57614 66.7215 9.98825V22.5865C67.6809 17.0003 70.4046 12.5126 73.7461 12.3723C77.4291 12.2321 79.5268 14.8889 79.5268 18.0988V28.1728C79.5268 29.731 80.1447 31.2892 81.6325 32.0684H74.2746C75.7543 31.2892 76.3803 29.731 76.3803 28.1728V17.7249C76.3803 15.9874 75.6161 13.2839 73.3721 13.2839C69.933 13.2839 67.1118 19.7428 66.7297 26.2016V28.1728C66.7297 29.731 67.3476 31.2892 68.7866 32.0684H61.4694C62.9003 31.2892 63.5751 29.731 63.5751 28.1728V6.23292C63.5751 2.57108 62.193 1.33229 60.2742 1.33229C57.8839 1.33229 54.6806 3.20995 52.339 4.62794L51.9569 1.28554C53.9651 0.412931 55.9245 0 57.6969 0L57.6888 0Z" fill="#F5C445"/>
<path d="M83.502 15.2088L88.7623 12.965V21.9014C89.5265 16.6814 91.3883 12.5988 94.5917 12.4663C98.2259 12.3261 99.9902 14.9361 99.9902 17.8267V21.9014C100.754 16.6814 102.616 12.5988 105.82 12.4663C109.454 12.3261 111.267 14.9361 111.267 17.8267V28.1811C111.267 29.7393 111.885 31.2975 113.373 32.0767H106.015C107.494 31.2975 108.121 29.7393 108.121 28.1811V18.1071C108.121 16.3697 107.925 13.2532 105.446 13.3467C102.007 13.487 100.429 19.6654 99.9983 26.3112V28.1889C99.9983 29.7471 100.665 31.3053 102.104 32.0844H94.7868C96.2177 31.3053 96.8438 29.7471 96.8438 28.1889V18.1149C96.8438 16.3775 96.6974 13.261 94.1689 13.3545C90.7786 13.4948 89.1525 19.6732 88.7704 26.319V28.1967C88.7704 29.7549 89.3883 31.3131 90.8274 32.0922H83.5101C84.941 31.3131 85.6158 29.7549 85.6158 28.1967V18.076C85.6158 16.5177 84.9491 15.3257 83.5101 15.2322L83.502 15.2088Z" fill="#F5C445"/>
<path d="M124.617 18.5979C127.105 18.5979 129.585 19.2368 131.309 20.5224V18.185C131.211 14.8894 129.878 13.6973 127.918 13.6973C125.764 13.6973 122.853 15.2088 120.081 16.8605L119.699 13.5181C121.373 12.8325 123.235 12.4663 125.097 12.4663C129.878 12.4663 134.463 14.9361 134.463 20.5301V28.1811C134.463 29.7393 135.081 31.2975 136.569 32.0766H131.309V28.4615C129.918 31.2118 126.626 32.6298 123.373 32.6298C119.308 32.6298 115.341 30.4327 115.243 25.8982C115.146 20.9509 119.877 18.6135 124.609 18.6135L124.617 18.5979ZM124.089 31.8818C127.577 31.8818 131.406 29.3186 131.309 25.3762V21.6209C129.829 20.1094 127.536 19.3303 125.333 19.3303C121.845 19.3303 118.447 21.3015 118.398 25.4697C118.349 30.0042 121.121 31.8818 124.089 31.8818Z" fill="#F5C445"/>
<path d="M138.577 39.992C136.804 39.992 134.845 39.4856 132.601 38.7532L132.983 35.4108C135.178 36.8755 137.617 38.0208 139.821 38.0208C142.024 38.0208 143.837 36.9223 144.935 33.8526L138.813 16.8601C138.195 15.1616 137.187 13.7436 135.658 12.9645H143.016C141.772 13.9696 141.772 15.7148 142.252 17.0393L146.65 29.1779L151.911 14.5227C153.301 10.6739 156.26 6.18621 161.041 6.32645L159.659 10.8141C159.179 10.6739 158.699 10.5882 158.228 10.5882C155.26 10.5882 153.114 13.5177 152.203 16.042L145.65 34.0473C144.073 38.4416 141.731 39.9998 138.577 39.9998V39.992Z" fill="#F5C445"/>
<path d="M27.8345 0C29.2654 0.779115 30.0297 2.33734 30.0297 3.89557V30.0505L14.2487 4.23059V4.24617C12.6877 1.48032 9.91529 0 6.57373 0C4.80133 0 2.84192 0.412931 0.83374 1.28554L1.21586 4.62794C3.55739 3.20995 6.76073 1.32449 9.15104 1.32449C11.0617 1.32449 12.4519 2.56329 12.4519 6.22513V28.165C12.4519 29.7232 11.7853 31.2815 10.3462 32.0606H17.6635C16.2325 31.2815 15.6065 29.7232 15.6065 28.165V12.8086L27.2653 32.0528H30.7532V3.89557C30.7532 2.33734 31.5175 0.779115 32.9484 0H27.8345Z" fill="#F5C445"/>
</svg>
