<svg width="31" height="35" viewBox="0 0 31 35" fill="none" xmlns="http://www.w3.org/2000/svg">
<path d="M14.7568 0.695502L13.1554 6.01917C12.5602 8.04347 11.5469 9.88331 10.1974 11.3903C8.84796 12.8973 7.20001 14.0293 5.38651 14.695L0.559333 16.4878C0.396702 16.547 0.255023 16.6622 0.154561 16.8167C0.0540994 16.9712 0 17.1573 0 17.3482C0 17.5391 0.0540994 17.7251 0.154561 17.8797C0.255023 18.0342 0.396702 18.1493 0.559333 18.2086L5.38909 19.9985C7.18484 20.6659 8.81629 21.7917 10.1537 23.2863C11.4912 24.7809 12.4978 26.6031 13.0935 28.608L14.6948 33.998C14.7486 34.1791 14.8521 34.3367 14.9908 34.4484C15.1294 34.5601 15.296 34.6202 15.467 34.6202C15.638 34.6202 15.8046 34.5601 15.9433 34.4484C16.0819 34.3367 16.1855 34.1791 16.2393 33.998L17.9025 28.6743C18.4999 26.6703 19.5074 24.8491 20.8451 23.3551C22.1829 21.8612 23.8141 20.7356 25.6095 20.0677L30.4367 18.2777C30.6003 18.2192 30.743 18.1042 30.8442 17.9493C30.9454 17.7944 31 17.6076 31 17.4159C31 17.2242 30.9454 17.0374 30.8442 16.8825C30.743 16.7277 30.6003 16.6126 30.4367 16.5541L25.6715 14.6979C23.8572 14.0329 22.2086 12.9009 20.859 11.3932C19.5093 9.88551 18.4966 8.04455 17.9025 6.01917L16.3012 0.629208C16.2428 0.448545 16.1344 0.293319 15.9916 0.185986C15.8489 0.0786534 15.6793 0.024781 15.5073 0.0321631C15.3353 0.0395452 15.1699 0.107799 15.0349 0.227049C14.9 0.3463 14.8026 0.510363 14.7568 0.695502Z" fill="#0E223D"/>
</svg>
