<svg width="393" height="277" viewBox="0 0 393 277" fill="none" xmlns="http://www.w3.org/2000/svg">
<path d="M14.2413 121.916C13.7593 129.87 8.71593 135.121 3.87494 138.369C8.70973 141.617 13.7516 146.867 14.2413 154.818L14.2413 154.819C14.4675 158.52 14.2069 164.247 13.914 170.685L13.8957 171.088L11.8978 170.997L13.8957 171.088L13.8917 171.175C13.558 178.507 13.1672 187.09 13.3407 194.899C13.5171 202.845 14.279 209.599 16.047 213.43L16.0474 213.431C17.1677 215.862 20.5916 218.25 26.9766 219.991C33.2207 221.693 41.7646 222.63 52.2219 222.63C56.9201 222.63 61.142 222.436 64.1985 222.241C65.7258 222.144 66.9603 222.047 67.8157 221.974C68.2432 221.938 68.5764 221.907 68.8046 221.886L69.0702 221.861L69.15 221.854L69.1744 221.852L72.086 221.546L74.3069 221.313L74.2949 223.546L74.2771 226.841L74.277 226.843C74.2436 232.118 75.5265 235.877 77.9573 238.611C80.9679 241.993 86.0156 244.092 92.548 245.304C99.036 246.508 106.654 246.779 114.462 246.779C119.121 246.779 123.918 246.68 129.021 246.56L129.044 246.56H129.068H129.4C130.313 246.53 131.229 246.53 132.107 246.53H132.122C144.743 246.53 158.407 248.405 170.329 252.893C181.087 256.944 190.579 263.185 196.492 272.245C202.406 263.179 211.903 256.935 222.665 252.883C234.588 248.395 248.252 246.52 260.869 246.52C261.771 246.52 262.683 246.53 263.592 246.56H263.941H263.963L263.984 246.56C269.081 246.67 273.878 246.769 278.529 246.769C286.337 246.769 293.957 246.498 300.447 245.294C306.981 244.082 312.028 241.982 315.034 238.601L316.528 239.93L315.034 238.601C317.465 235.867 318.748 232.108 318.714 226.833V226.831L318.696 223.526L318.684 221.293L320.905 221.526L323.844 221.835L323.863 221.837L323.881 221.839C323.863 221.837 325.725 222.031 328.796 222.225C331.852 222.418 336.075 222.61 340.778 222.61C351.235 222.61 359.779 221.673 366.023 219.971C372.408 218.23 375.832 215.842 376.953 213.411L376.953 213.41C378.721 209.579 379.485 202.824 379.663 194.88C379.838 187.042 379.443 178.424 379.104 171.08L379.104 171.078L379.086 170.677C378.793 164.238 378.533 158.51 378.759 154.809M14.2413 121.916L380.755 154.931M14.2413 121.916C14.4675 118.216 14.2069 112.489 13.914 106.051L13.8957 105.647L13.8956 105.646C13.5566 98.3019 13.1621 89.6838 13.3373 81.8444C13.5149 73.8995 14.2788 67.1417 16.0473 63.3048L16.0474 63.3047C17.1677 60.8736 20.5916 58.4859 26.9766 56.7449C33.2207 55.0423 41.7646 54.1053 52.2219 54.1053C61.2944 54.1053 68.5383 54.8192 69.0504 54.8697C69.0709 54.8717 69.0807 54.8727 69.0793 54.8725L69.1132 54.8772L69.1472 54.8808L72.086 55.1894L74.3069 55.4226L74.2949 53.1895L74.2771 49.8947L74.277 49.8928C74.2436 44.6174 75.5265 40.8589 77.9573 38.1248L77.9575 38.1246C80.9631 34.7434 86.0101 32.6434 92.5446 31.4311C99.0338 30.2273 106.654 29.9566 114.462 29.9566C119.122 29.9566 123.91 30.0557 129.016 30.1652L129.037 30.1657H129.059H129.4C130.317 30.1956 131.228 30.2055 132.131 30.2055C144.748 30.2055 158.412 28.3307 170.333 23.8422C181.096 19.7903 190.591 13.5461 196.501 4.47922M378.759 154.809L380.755 154.931M378.759 154.809C378.759 154.81 378.759 154.81 378.759 154.811L380.755 154.931M378.759 154.809C379.241 146.856 384.284 141.605 389.125 138.357M380.755 154.931C381.208 147.455 386.195 142.548 390.994 139.526C390.382 139.169 389.755 138.78 389.125 138.357M389.125 138.357C384.29 135.108 379.248 129.858 378.759 121.907L378.759 121.906C378.533 118.205 378.793 112.478 379.086 106.039L379.104 105.637L379.108 105.556C379.442 98.2288 379.833 89.6453 379.659 81.8354C379.483 73.8911 378.721 67.1368 376.953 63.3056L376.953 63.3046C375.832 60.8736 372.408 58.4859 366.023 56.7449C359.779 55.0423 351.235 54.1053 340.778 54.1053C336.08 54.1053 331.858 54.2998 328.802 54.4945C327.274 54.5918 326.04 54.6889 325.184 54.7617C324.757 54.798 324.424 54.8282 324.195 54.8494L323.93 54.8742L323.85 54.8815L323.826 54.8836M389.125 138.357C389.755 137.934 390.382 137.545 390.995 137.188C386.202 134.166 381.215 129.259 380.755 121.784L323.826 54.8836M323.826 54.8836L323.853 54.8808L323.644 52.8917M323.826 54.8836L378.769 62.4676C375.732 55.8779 361.884 52.1053 340.778 52.1053C332.033 52.1053 324.932 52.7714 323.801 52.8775C323.703 52.8867 323.65 52.8917 323.644 52.8917M323.644 52.8917V54.8917C323.664 54.8917 323.682 54.8914 323.698 54.891C323.718 54.8904 323.733 54.8897 323.739 54.8895C323.756 54.8887 323.769 54.8879 323.776 54.8874C323.792 54.8864 323.805 54.8854 323.811 54.8848M323.644 52.8917L322.706 52.9902L322.705 53.2111L320.705 53.2003L320.496 51.2112L320.716 51.1882L320.723 49.9055C320.759 44.2913 319.387 40.0011 316.537 36.7959M323.811 54.8848L195.338 2.57768C195.708 3.22488 196.096 3.85866 196.501 4.47922M323.811 54.8848L320.914 55.1894L318.693 55.4226L318.705 53.1895L318.723 49.8946V49.8928C318.756 44.6174 317.474 40.8589 315.043 38.1248L316.537 36.7959M323.811 54.8848L196.501 4.47922M316.537 36.7959C309.636 29.0317 294.193 27.9566 278.538 27.9566C274.117 27.9566 269.569 28.0545 264.773 28.1577L263.941 28.1756H263.567C262.668 28.2055 261.768 28.2055 260.869 28.2055C236.838 28.2055 209.186 21.2977 197.663 2.57734C197.293 3.22466 196.905 3.85856 196.501 4.47922M316.537 36.7959L315.043 38.1246C312.037 34.7434 306.99 32.6434 300.455 31.4311C293.966 30.2273 286.346 29.9566 278.538 29.9566C274.139 29.9566 269.611 30.0541 264.809 30.1574L263.984 30.1752L263.963 30.1756H263.941H263.6C262.679 30.2055 261.763 30.2055 260.885 30.2055H260.869C248.252 30.2055 234.59 28.3307 222.67 23.8422C211.908 19.7901 202.414 13.5459 196.501 4.47922M11.8978 105.738C11.2209 91.0757 10.3037 70.9883 14.231 62.4676L12.2451 121.794C12.4646 118.202 12.2079 112.558 11.9104 106.016L11.8978 105.738Z" fill="#0E223D" fill-opacity="0.79" stroke="#F3C346" stroke-width="4"/>
</svg>
