<svg width="41" height="40" viewBox="0 0 41 40" fill="none" xmlns="http://www.w3.org/2000/svg">
<path d="M28.6462 5.625C25.5072 5.625 22.7212 6.86406 20.8337 8.99375C18.9462 6.86406 16.1603 5.625 13.0212 5.625C10.2872 5.62831 7.66611 6.71586 5.73286 8.64912C3.7996 10.5824 2.71205 13.2035 2.70874 15.9375C2.70874 27.2406 19.2416 36.2719 19.9447 36.6516C20.2179 36.7987 20.5234 36.8757 20.8337 36.8757C21.1441 36.8757 21.4496 36.7987 21.7228 36.6516C22.4259 36.2719 38.9587 27.2406 38.9587 15.9375C38.9554 13.2035 37.8679 10.5824 35.9346 8.64912C34.0014 6.71586 31.3803 5.62831 28.6462 5.625ZM27.7884 27.8687C25.6123 29.7154 23.286 31.3774 20.8337 32.8375C18.3815 31.3774 16.0552 29.7154 13.8791 27.8687C10.4931 24.9641 6.45874 20.5344 6.45874 15.9375C6.45874 14.197 7.15014 12.5278 8.38085 11.2971C9.61156 10.0664 11.2808 9.375 13.0212 9.375C15.8025 9.375 18.1306 10.8438 19.0978 13.2094C19.2386 13.5542 19.4789 13.8493 19.788 14.0571C20.0972 14.2648 20.4613 14.3758 20.8337 14.3758C21.2062 14.3758 21.5703 14.2648 21.8794 14.0571C22.1886 13.8493 22.4289 13.5542 22.5697 13.2094C23.5369 10.8438 25.865 9.375 28.6462 9.375C30.3867 9.375 32.0559 10.0664 33.2866 11.2971C34.5173 12.5278 35.2087 14.197 35.2087 15.9375C35.2087 20.5344 31.1744 24.9641 27.7884 27.8687Z" fill="#F5C445"/>
</svg>
