<svg width="34" height="36" viewBox="0 0 34 36" fill="none" xmlns="http://www.w3.org/2000/svg">
<path d="M31.1663 33L24.3804 25.7617M24.3804 25.7617C25.5412 24.5236 26.4619 23.0537 27.0901 21.436C27.7183 19.8183 28.0417 18.0845 28.0417 16.3335C28.0417 14.5825 27.7183 12.8487 27.0901 11.231C26.4619 9.61331 25.5412 8.14343 24.3804 6.9053C23.2196 5.66717 21.8416 4.68503 20.325 4.01495C18.8084 3.34488 17.1829 3 15.5413 3C13.8998 3 12.2743 3.34488 10.7577 4.01495C9.24106 4.68503 7.86304 5.66717 6.70227 6.9053C4.35801 9.40582 3.04102 12.7973 3.04102 16.3335C3.04102 19.8698 4.35801 23.2612 6.70227 25.7617C9.04654 28.2623 12.226 29.667 15.5413 29.667C18.8566 29.667 22.0361 28.2623 24.3804 25.7617Z" stroke="#F5C445" stroke-width="5.20833" stroke-linecap="round" stroke-linejoin="round"/>
</svg>
