<svg width="25" height="17" viewBox="0 0 25 17" fill="none" xmlns="http://www.w3.org/2000/svg">
<path d="M3.26456 16.5235C2.62596 16.5235 2.07947 16.3279 1.6251 15.9367C1.17073 15.5455 0.943157 15.0747 0.942383 14.5242V2.52857C0.942383 1.97877 1.16996 1.50827 1.6251 1.11708C2.08025 0.725892 2.62673 0.529963 3.26456 0.529297H21.842C22.4805 0.529297 23.0274 0.725225 23.4826 1.11708C23.9377 1.50894 24.1649 1.97943 24.1641 2.52857V14.5242C24.1641 15.074 23.9369 15.5448 23.4826 15.9367C23.0282 16.3285 22.4813 16.5241 21.842 16.5235H3.26456ZM12.5533 9.52601L3.26456 4.52784V14.5242H21.842V4.52784L12.5533 9.52601ZM12.5533 7.52674L21.842 2.52857H3.26456L12.5533 7.52674ZM3.26456 4.52784V2.52857V14.5242V4.52784Z" fill="#0E223D"/>
</svg>
