<svg width="21" height="21" viewBox="0 0 21 21" fill="none" xmlns="http://www.w3.org/2000/svg">
<path fill-rule="evenodd" clip-rule="evenodd" d="M7.18867 14.1741C10.9962 18.0177 14.5245 18.4385 15.5603 18.4775C16.812 18.5235 18.0894 17.4919 18.642 16.4353C17.7607 15.3916 16.613 14.5819 15.3563 13.7043C14.6146 14.452 13.7006 15.8415 12.4836 15.3437C11.7914 15.0628 10.0822 14.268 8.5889 12.7596C7.0946 11.2521 6.30833 9.52678 6.02809 8.82903C5.53494 7.59848 6.91536 6.67382 7.65707 5.92509C6.78762 4.63556 5.99937 3.447 4.96753 2.60231C3.90597 3.1621 2.87808 4.44164 2.92462 5.72217C2.96324 6.76779 3.38014 10.3295 7.18867 14.1741ZM15.487 20.4758C14.0611 20.4228 10.0198 19.859 5.78746 15.5876C1.55609 11.3151 0.998572 7.23661 0.945098 5.79614C0.865877 3.60094 2.53149 1.46872 4.45556 0.636025C4.68726 0.535029 4.94099 0.496577 5.19185 0.524441C5.44271 0.552306 5.68209 0.645531 5.88648 0.794967C7.47882 1.96754 8.57702 3.74389 9.52073 5.13538C9.71705 5.42473 9.80699 5.77425 9.77498 6.12347C9.74297 6.47268 9.59103 6.79961 9.34546 7.04768L8.00267 8.40419C8.3146 9.09893 8.94935 10.2965 9.98912 11.3461C11.0289 12.3957 12.2152 13.0365 12.9044 13.3514L14.2462 11.9959C14.4929 11.7475 14.8181 11.5943 15.1652 11.563C15.5123 11.5318 15.8592 11.6245 16.1456 11.8249C17.5517 12.8086 19.2035 13.9012 20.4076 15.4576C20.5677 15.6654 20.6695 15.9129 20.7024 16.174C20.7353 16.4351 20.6982 16.7004 20.5948 16.9421C19.7659 18.8944 17.6686 20.5568 15.487 20.4758Z" fill="#0E223D"/>
</svg>
