<svg width="21" height="21" viewBox="0 0 21 21" fill="none" xmlns="http://www.w3.org/2000/svg">
<path d="M6.68588 0.542969H15.004C18.1729 0.542969 20.7475 3.14202 20.7475 6.34085V14.7378C20.7475 16.2755 20.1424 17.7502 19.0653 18.8375C17.9882 19.9248 16.5273 20.5357 15.004 20.5357H6.68588C3.51705 20.5357 0.942383 17.9366 0.942383 14.7378V6.34085C0.942383 4.80316 1.5475 3.32844 2.62461 2.24113C3.70173 1.15382 5.16261 0.542969 6.68588 0.542969ZM6.48783 2.54224C5.54235 2.54224 4.6356 2.92138 3.96704 3.59627C3.29849 4.27115 2.9229 5.18649 2.9229 6.14092V14.9377C2.9229 16.927 4.51721 18.5364 6.48783 18.5364H15.2021C16.1476 18.5364 17.0543 18.1573 17.7229 17.4824C18.3914 16.8075 18.767 15.8921 18.767 14.9377V6.14092C18.767 4.15165 17.1727 2.54224 15.2021 2.54224H6.48783ZM16.0438 4.04169C16.3721 4.04169 16.687 4.17334 16.9191 4.40767C17.1512 4.64201 17.2816 4.95984 17.2816 5.29123C17.2816 5.62263 17.1512 5.94046 16.9191 6.1748C16.687 6.40913 16.3721 6.54078 16.0438 6.54078C15.7155 6.54078 15.4007 6.40913 15.1685 6.1748C14.9364 5.94046 14.806 5.62263 14.806 5.29123C14.806 4.95984 14.9364 4.64201 15.1685 4.40767C15.4007 4.17334 15.7155 4.04169 16.0438 4.04169ZM10.845 5.54114C12.1581 5.54114 13.4175 6.06774 14.3461 7.00507C15.2746 7.94241 15.7963 9.21372 15.7963 10.5393C15.7963 11.8649 15.2746 13.1362 14.3461 14.0736C13.4175 15.0109 12.1581 15.5375 10.845 15.5375C9.5318 15.5375 8.27242 15.0109 7.34387 14.0736C6.41532 13.1362 5.89367 11.8649 5.89367 10.5393C5.89367 9.21372 6.41532 7.94241 7.34387 7.00507C8.27242 6.06774 9.5318 5.54114 10.845 5.54114ZM10.845 7.54041C10.0571 7.54041 9.30144 7.85637 8.74431 8.41877C8.18718 8.98118 7.87419 9.74396 7.87419 10.5393C7.87419 11.3347 8.18718 12.0975 8.74431 12.6599C9.30144 13.2223 10.0571 13.5382 10.845 13.5382C11.6329 13.5382 12.3885 13.2223 12.9456 12.6599C13.5027 12.0975 13.8157 11.3347 13.8157 10.5393C13.8157 9.74396 13.5027 8.98118 12.9456 8.41877C12.3885 7.85637 11.6329 7.54041 10.845 7.54041Z" fill="#0E223D"/>
</svg>
